<?xml version="1.0" standalone="no"?>
<!DOCTYPE svg PUBLIC "-//W3C//DTD SVG 20010904//EN"
 "http://www.w3.org/TR/2001/REC-SVG-20010904/DTD/svg10.dtd">
<svg version="1.0" xmlns="http://www.w3.org/2000/svg"
 width="540.000000pt" height="86.000000pt" viewBox="0 0 540.000000 86.000000"
 preserveAspectRatio="xMidYMid meet">

<g transform="translate(0.000000,86.000000) scale(0.100000,-0.100000)"
fill="#000000" stroke="none">
<path d="M3673 852 c-11 -8 -63 -139 -149 -377 -30 -82 -60 -163 -66 -178 -13
-33 -149 -129 -276 -193 -156 -80 -242 -79 -242 2 0 47 41 130 91 188 67 76
164 121 202 94 17 -12 16 -15 -6 -45 -13 -18 -36 -42 -51 -54 -21 -17 -24 -24
-15 -35 17 -21 32 -17 76 21 55 47 71 86 49 120 -72 109 -280 5 -369 -183 -37
-79 -34 -139 7 -181 24 -23 34 -26 99 -26 64 0 81 5 157 42 47 23 114 60 149
83 35 22 65 39 67 37 2 -2 -7 -30 -22 -61 -21 -45 -23 -60 -14 -71 20 -24 37
-17 49 17 47 133 247 347 304 325 20 -7 14 -27 -43 -157 -66 -148 -59 -220 22
-220 41 0 81 23 183 107 l90 74 6 -34 c8 -49 40 -98 77 -120 102 -60 317 -8
480 115 l53 39 -36 -71 c-20 -39 -33 -75 -30 -80 14 -23 47 -7 89 43 25 28 67
78 95 110 83 98 231 220 247 204 6 -6 -21 -84 -60 -172 -19 -44 -38 -99 -42
-122 -5 -36 -3 -45 19 -67 33 -33 64 -33 130 0 120 61 413 272 398 287 -15 15
-41 1 -217 -116 -180 -119 -243 -153 -268 -144 -24 10 -20 27 36 160 57 136
69 195 44 216 -40 33 -133 -18 -254 -137 -41 -40 -71 -65 -67 -55 35 81 39
103 26 115 -11 11 -15 9 -25 -7 -6 -11 -36 -44 -66 -74 -176 -174 -389 -265
-504 -217 -49 20 -66 51 -66 116 0 81 6 84 74 50 73 -37 147 -40 208 -9 97 50
114 112 50 180 -31 34 -46 42 -85 46 -56 7 -133 -16 -193 -58 l-43 -29 -10 37
c-6 21 -13 50 -16 66 -4 18 -12 27 -25 27 -16 0 -20 -7 -20 -37 1 -21 9 -61
18 -89 22 -63 15 -82 -47 -129 -25 -18 -80 -61 -121 -95 -95 -78 -129 -97
-141 -78 -13 18 -4 49 43 153 48 108 61 191 33 211 -42 31 -104 12 -186 -57
l-46 -38 42 123 c24 67 66 182 94 256 28 73 51 136 51 140 0 11 -25 19 -37 12z
m640 -472 c37 -30 42 -55 17 -90 -28 -39 -69 -60 -118 -60 -49 0 -127 40 -127
65 0 26 67 76 122 91 66 18 77 17 106 -6z"/>
<path d="M1103 655 c-38 -27 -45 -50 -29 -90 19 -44 36 -44 76 1 40 46 40 97
0 102 -14 1 -35 -4 -47 -13z"/>
<path d="M334 427 c-3 -8 -16 -14 -30 -14 -50 0 -185 -107 -240 -189 -80 -121
-72 -224 16 -224 61 0 200 128 256 235 l28 53 26 -18 c37 -26 112 -43 164 -38
l43 5 -33 -55 c-36 -60 -62 -158 -46 -174 22 -22 47 -3 59 46 40 159 189 319
318 340 51 9 70 20 60 36 -12 19 -123 7 -175 -20 -24 -12 -69 -46 -100 -75
-50 -48 -60 -53 -112 -58 -65 -6 -115 5 -149 32 -17 14 -25 33 -29 72 -4 46
-8 54 -28 57 -12 2 -24 -3 -28 -11z m-23 -132 c-28 -64 -112 -167 -170 -209
-86 -63 -111 -40 -63 57 34 68 116 155 197 209 49 33 50 33 53 11 2 -12 -6
-43 -17 -68z"/>
<path d="M1059 438 c-1 -2 -3 -23 -4 -48 -2 -29 -21 -82 -55 -153 -65 -135
-72 -176 -37 -211 47 -47 102 -32 255 67 57 37 105 67 107 67 3 0 0 -12 -5
-26 -17 -44 -12 -89 13 -112 44 -42 108 -19 197 72 59 60 130 160 130 182 0
18 9 18 31 -2 27 -24 88 -43 142 -44 26 0 47 -3 47 -7 0 -3 -21 -44 -46 -91
-46 -85 -50 -112 -16 -112 21 0 55 35 132 133 74 96 238 237 274 237 8 0 -18
-75 -60 -175 -20 -49 -39 -108 -42 -131 -4 -35 -1 -44 23 -62 36 -29 64 -28
128 4 110 56 397 262 397 285 0 24 -47 0 -204 -105 -183 -122 -243 -156 -276
-156 -32 0 -25 35 35 177 57 134 63 160 45 194 -26 48 -123 3 -248 -118 -45
-43 -82 -78 -82 -78 6 0 39 112 36 121 -10 26 -33 14 -49 -26 -14 -36 -19 -40
-54 -42 -132 -7 -176 21 -178 111 0 43 -26 62 -52 40 -10 -9 -29 -16 -42 -17
-28 -1 -105 -53 -171 -113 -50 -46 -231 -168 -333 -224 -111 -61 -124 -26 -51
130 55 118 74 196 55 219 -11 13 -38 22 -42 14z m581 -71 c0 -28 -61 -137
-109 -195 -90 -108 -171 -153 -171 -95 0 65 107 207 196 259 23 14 48 31 54
39 13 16 30 11 30 -8z"/>
</g>
</svg>
